<svg width="12" height="12" viewBox="0 0 12 12" fill="none" xmlns="http://www.w3.org/2000/svg">
<path fill-rule="evenodd" clip-rule="evenodd" d="M1.33833 0.559297C1.12376 0.346827 0.77588 0.346827 0.561315 0.559297C0.346749 0.771768 0.346749 1.11625 0.561315 1.32872L5.27873 6.00007L0.561421 10.6713C0.346856 10.8838 0.346856 11.2283 0.561421 11.4407C0.775987 11.6532 1.12387 11.6532 1.33843 11.4407L6.05574 6.7695L10.6625 11.3312C10.877 11.5437 11.2249 11.5437 11.4395 11.3312C11.654 11.1188 11.654 10.7743 11.4395 10.5618L6.83275 6.00007L11.4396 1.43823C11.6541 1.22576 11.6541 0.88128 11.4396 0.668809C11.225 0.456339 10.8771 0.456339 10.6626 0.66881L6.05574 5.23065L1.33833 0.559297Z" fill="#828282"/>
</svg>
